<svg xmlns="http://www.w3.org/2000/svg" viewBox="0 0 1024 1024">
  <defs>
    <linearGradient id="tile" x1="160" y1="84" x2="864" y2="940" gradientUnits="userSpaceOnUse">
      <stop offset="0" stop-color="#F2F2F0" />
      <stop offset="0.48" stop-color="#E4E5E5" />
      <stop offset="1" stop-color="#C9CBCE" />
    </linearGradient>
    <linearGradient id="tile-shade" x1="218" y1="96" x2="790" y2="936" gradientUnits="userSpaceOnUse">
      <stop offset="0" stop-color="#FFFFFF" stop-opacity="0.34" />
      <stop offset="0.38" stop-color="#FFFFFF" stop-opacity="0.08" />
      <stop offset="1" stop-color="#4B4D50" stop-opacity="0.16" />
    </linearGradient>
    <linearGradient id="ring" x1="282" y1="244" x2="774" y2="804" gradientUnits="userSpaceOnUse">
      <stop offset="0" stop-color="#FFFFFF" />
      <stop offset="0.45" stop-color="#EDEEEF" />
      <stop offset="1" stop-color="#B9BDC1" />
    </linearGradient>
    <linearGradient id="inner" x1="328" y1="284" x2="734" y2="746" gradientUnits="userSpaceOnUse">
      <stop offset="0" stop-color="#2E3135" />
      <stop offset="1" stop-color="#101214" />
    </linearGradient>
    <linearGradient id="monogram" x1="363" y1="321" x2="663" y2="706" gradientUnits="userSpaceOnUse">
      <stop offset="0" stop-color="#FFFFFF" />
      <stop offset="0.62" stop-color="#F2F3F4" />
      <stop offset="1" stop-color="#D1D4D8" />
    </linearGradient>
    <filter id="soft-shadow" x="-20%" y="-20%" width="140%" height="140%">
      <feDropShadow dx="0" dy="34" stdDeviation="34" flood-color="#111214" flood-opacity="0.28" />
    </filter>
    <filter id="mark-shadow" x="-20%" y="-20%" width="140%" height="140%">
      <feDropShadow dx="0" dy="18" stdDeviation="12" flood-color="#101112" flood-opacity="0.24" />
    </filter>
  </defs>

  <rect x="72" y="72" width="880" height="880" rx="210" fill="url(#tile)" />
  <rect x="72" y="72" width="880" height="880" rx="210" fill="url(#tile-shade)" />
  <path
    d="M170 222C238 127 362 96 512 96c236 0 384 148 416 362C841 322 696 244 514 244c-142 0-256-6-344-22z"
    fill="#FFFFFF"
    opacity="0.16"
  />
  <path
    d="M153 774c86 84 208 134 359 134 185 0 322-76 406-202-70 46-182 76-337 76H341c-78 0-140-3-188-8z"
    fill="#6A6C6F"
    opacity="0.12"
  />

  <g filter="url(#soft-shadow)">
    <circle cx="512" cy="512" r="330" fill="#111214" opacity="0.18" />
    <circle cx="512" cy="512" r="298" fill="url(#inner)" />
    <circle cx="512" cy="512" r="298" fill="none" stroke="url(#ring)" stroke-width="64" />
    <circle cx="512" cy="512" r="236" fill="#FFFFFF" opacity="0.06" />
    <path
      d="M318 374c44-63 112-95 202-95 96 0 170 39 220 115-54-38-127-57-221-57-87 0-154 12-201 37z"
      fill="#FFFFFF"
      opacity="0.16"
    />
  </g>

  <path
    filter="url(#mark-shadow)"
    fill="url(#monogram)"
    d="M312 704V320h100l100 168 100-168h100v384h-96V488l-65 118h-78l-65-118v216z"
  />
  <path
    d="M318 333h88l106 178 106-178h88"
    fill="none"
    stroke="#FFFFFF"
    stroke-width="20"
    stroke-linecap="round"
    opacity="0.18"
  />
</svg>
